<svg width="229" height="66" viewBox="0 0 229 66" fill="none" xmlns="http://www.w3.org/2000/svg">
<path d="M10.8826 65.6026C10.6555 65.6026 10.4661 65.396 10.3147 64.9828C10.1632 64.5695 10.0875 64.053 10.0875 63.4331V4.33907H1.79515C1.56797 4.33907 1.37865 4.13245 1.22719 3.7192C1.07573 3.30596 1 2.7894 1 2.16953C1 1.54967 1.07573 1.03311 1.22719 0.619866C1.37865 0.206622 1.56797 0 1.79515 0H19.9701C20.1973 0 20.3866 0.206622 20.5381 0.619866C20.6896 1.03311 20.7653 1.54967 20.7653 2.16953C20.7653 2.7894 20.6896 3.30596 20.5381 3.7192C20.3866 4.13245 20.1973 4.33907 19.9701 4.33907H11.6778V63.4331C11.6778 64.053 11.6021 64.5695 11.4506 64.9828C11.2992 65.396 11.1098 65.6026 10.8826 65.6026Z" fill="black"/>
<path d="M41.2408 65.6026C41.0136 65.947 40.8054 66.0675 40.6161 65.9642C40.4394 65.8609 40.2816 65.5338 40.1427 64.9828L33.8194 37.9152H26.3222V63.3298C26.3222 64.7762 26.0571 65.4993 25.527 65.4993C24.9969 65.4993 24.7319 64.7762 24.7319 63.3298V2.27284C24.7319 0.826488 24.9969 0.10331 25.527 0.10331H34.3873C36.4951 0.10331 38.0791 1.56688 39.1393 4.49403C40.2122 7.38675 40.7486 11.7086 40.7486 17.4596V20.5589C40.7486 25.6556 40.3194 29.6503 39.4612 32.543C38.6155 35.4013 37.3534 37.1232 35.6747 37.7086L41.468 62.6066C41.7709 63.8808 41.6952 64.8795 41.2408 65.6026ZM26.3222 33.5762H34.3873C36.0408 33.5762 37.2461 32.5258 38.0034 30.4252C38.7733 28.3245 39.1583 25.0358 39.1583 20.5589V17.4596C39.1583 12.9483 38.7733 9.6596 38.0034 7.59338C37.2461 5.49271 36.0408 4.44238 34.3873 4.44238H26.3222V33.5762Z" fill="black"/>
<path d="M47.5654 65.4993C47.3382 65.4993 47.1489 65.2927 46.9974 64.8795C46.8459 64.4662 46.7702 63.9497 46.7702 63.3298V2.16953C46.7702 1.54967 46.8459 1.03311 46.9974 0.619866C47.1489 0.206622 47.3382 0 47.5654 0C47.7926 0 47.9819 0.206622 48.1333 0.619866C48.2848 1.03311 48.3605 1.54967 48.3605 2.16953V63.3298C48.3605 63.9497 48.2848 64.4662 48.1333 64.8795C47.9819 65.2927 47.7926 65.4993 47.5654 65.4993Z" fill="black"/>
<path d="M55.9592 65.4993C55.4291 65.4993 55.164 64.7762 55.164 63.3298V2.27284C55.164 0.826488 55.4291 0.10331 55.9592 0.10331H64.8195C66.9273 0.10331 68.5113 1.56688 69.5715 4.49403C70.6443 7.38675 71.1807 11.7086 71.1807 17.4596V20.5589C71.1807 26.2755 70.6443 30.5973 69.5715 33.5245C68.5113 36.4517 66.9273 37.9152 64.8195 37.9152H56.7543V63.3298C56.7543 64.7762 56.4893 65.4993 55.9592 65.4993ZM56.7543 33.5762H64.8195C66.4729 33.5762 67.6782 32.5258 68.4355 30.4252C69.2054 28.3245 69.5904 25.0358 69.5904 20.5589V17.4596C69.5904 12.9483 69.2054 9.6596 68.4355 7.59338C67.6782 5.49271 66.4729 4.44238 64.8195 4.44238H56.7543V33.5762Z" fill="black"/>
<path d="M76.5184 65.4993C75.9883 65.4993 75.7233 64.7762 75.7233 63.3298V2.27284C75.7233 0.826488 75.9883 0.10331 76.5184 0.10331H85.3787C87.4865 0.10331 89.0705 1.56688 90.1307 4.49403C91.2036 7.38675 91.74 11.7086 91.74 17.4596V20.5589C91.74 26.2755 91.2036 30.5973 90.1307 33.5245C89.0705 36.4517 87.4865 37.9152 85.3787 37.9152H77.3136V63.3298C77.3136 64.7762 77.0485 65.4993 76.5184 65.4993ZM77.3136 33.5762H85.3787C87.0321 33.5762 88.2375 32.5258 88.9948 30.4252C89.7647 28.3245 90.1497 25.0358 90.1497 20.5589V17.4596C90.1497 12.9483 89.7647 9.6596 88.9948 7.59338C88.2375 5.49271 87.0321 4.44238 85.3787 4.44238H77.3136V33.5762Z" fill="black"/>
<path d="M97.0777 65.4993C96.8505 65.4993 96.6612 65.2927 96.5097 64.8795C96.3583 64.4662 96.2825 63.9497 96.2825 63.3298V2.16953C96.2825 1.54967 96.3583 1.03311 96.5097 0.619866C96.6612 0.206622 96.8505 0 97.0777 0C97.3049 0 97.4942 0.206622 97.6456 0.619866C97.7971 1.03311 97.8728 1.54967 97.8728 2.16953V63.3298C97.8728 63.9497 97.7971 64.4662 97.6456 64.8795C97.4942 65.2927 97.3049 65.4993 97.0777 65.4993Z" fill="black"/>
<path d="M120.446 65.6026C120.219 65.6026 120.029 65.396 119.878 64.9828C119.726 64.5695 119.651 64.053 119.651 63.4331V4.33907H111.358C111.131 4.33907 110.942 4.13245 110.79 3.7192C110.639 3.30596 110.563 2.7894 110.563 2.16953C110.563 1.54967 110.639 1.03311 110.79 0.619866C110.942 0.206622 111.131 0 111.358 0H129.533C129.76 0 129.95 0.206622 130.101 0.619866C130.253 1.03311 130.328 1.54967 130.328 2.16953C130.328 2.7894 130.253 3.30596 130.101 3.7192C129.95 4.13245 129.76 4.33907 129.533 4.33907H121.241V63.4331C121.241 64.053 121.165 64.5695 121.014 64.9828C120.862 65.396 120.673 65.6026 120.446 65.6026Z" fill="black"/>
<path d="M150.804 65.6026C150.577 65.947 150.368 66.0675 150.179 65.9642C150.002 65.8609 149.845 65.5338 149.706 64.9828L143.382 37.9152H135.885V63.3298C135.885 64.7762 135.62 65.4993 135.09 65.4993C134.56 65.4993 134.295 64.7762 134.295 63.3298V2.27284C134.295 0.826488 134.56 0.10331 135.09 0.10331H143.95C146.058 0.10331 147.642 1.56688 148.702 4.49403C149.775 7.38675 150.312 11.7086 150.312 17.4596V20.5589C150.312 25.6556 149.883 29.6503 149.024 32.543C148.179 35.4013 146.916 37.1232 145.238 37.7086L151.031 62.6066C151.334 63.8808 151.258 64.8795 150.804 65.6026ZM135.885 33.5762H143.95C145.604 33.5762 146.809 32.5258 147.566 30.4252C148.336 28.3245 148.721 25.0358 148.721 20.5589V17.4596C148.721 12.9483 148.336 9.6596 147.566 7.59338C146.809 5.49271 145.604 4.44238 143.95 4.44238H135.885V33.5762Z" fill="black"/>
<path d="M163.641 65.4993C160.953 65.4993 158.996 63.8464 157.772 60.5404C156.56 57.2 155.955 51.8623 155.955 44.5271V21.0755C155.955 13.6715 156.56 8.31656 157.772 5.0106C158.996 1.6702 160.94 0.0344366 163.603 0.10331H168.185C170.873 0.10331 172.823 1.77351 174.035 5.11391C175.259 8.41986 175.871 13.7404 175.871 21.0755V44.5271C175.871 51.8623 175.259 57.2 174.035 60.5404C172.823 63.8464 170.873 65.4993 168.185 65.4993H163.641ZM163.641 61.1603H168.185C169.674 61.1603 170.861 60.6265 171.744 59.5589C172.64 58.457 173.284 56.7007 173.675 54.2901C174.079 51.845 174.281 48.5907 174.281 44.5271V21.0755C174.281 17.0119 174.079 13.7748 173.675 11.3642C173.284 8.9192 172.64 7.16291 171.744 6.09536C170.861 4.99337 169.674 4.44238 168.185 4.44238H163.603C162.114 4.40794 160.928 4.9245 160.044 5.99205C159.16 7.0596 158.523 8.81589 158.132 11.2609C157.741 13.706 157.545 16.9775 157.545 21.0755V44.5271C157.545 48.5907 157.741 51.845 158.132 54.2901C158.536 56.7007 159.179 58.457 160.063 59.5589C160.959 60.6265 162.152 61.1603 163.641 61.1603Z" fill="black"/>
<path d="M183.086 65.4993C182.556 65.4993 182.291 64.7762 182.291 63.3298V2.27284C182.291 0.826488 182.556 0.10331 183.086 0.10331H191.947C194.054 0.10331 195.638 1.56688 196.699 4.49403C197.771 7.38675 198.308 11.7086 198.308 17.4596V20.5589C198.308 26.2755 197.771 30.5973 196.699 33.5245C195.638 36.4517 194.054 37.9152 191.947 37.9152H183.882V63.3298C183.882 64.7762 183.616 65.4993 183.086 65.4993ZM183.882 33.5762H191.947C193.6 33.5762 194.805 32.5258 195.563 30.4252C196.333 28.3245 196.718 25.0358 196.718 20.5589V17.4596C196.718 12.9483 196.333 9.6596 195.563 7.59338C194.805 5.49271 193.6 4.44238 191.947 4.44238H183.882V33.5762Z" fill="black"/>
<path d="M203.646 65.4993C203.115 65.4993 202.85 64.7762 202.85 63.3298V2.27284C202.85 0.826488 203.115 0.10331 203.646 0.10331H212.506C214.614 0.10331 216.198 1.56688 217.258 4.49403C218.331 7.38675 218.867 11.7086 218.867 17.4596V20.5589C218.867 26.2755 218.331 30.5973 217.258 33.5245C216.198 36.4517 214.614 37.9152 212.506 37.9152H204.441V63.3298C204.441 64.7762 204.176 65.4993 203.646 65.4993ZM204.441 33.5762H212.506C214.159 33.5762 215.365 32.5258 216.122 30.4252C216.892 28.3245 217.277 25.0358 217.277 20.5589V17.4596C217.277 12.9483 216.892 9.6596 216.122 7.59338C215.365 5.49271 214.159 4.44238 212.506 4.44238H204.441V33.5762Z" fill="black"/>
<path d="M224.205 65.4993C223.978 65.4993 223.788 65.2927 223.637 64.8795C223.485 64.4662 223.41 63.9497 223.41 63.3298V2.16953C223.41 1.54967 223.485 1.03311 223.637 0.619866C223.788 0.206622 223.978 0 224.205 0C224.432 0 224.621 0.206622 224.773 0.619866C224.924 1.03311 225 1.54967 225 2.16953V63.3298C225 63.9497 224.924 64.4662 224.773 64.8795C224.621 65.2927 224.432 65.4993 224.205 65.4993Z" fill="black"/>
<path d="M1 26.2955V21.7273H20.6705V26.2955H13.6136V45H8.06818V26.2955H1ZM23.4176 45V21.7273H33.0312C34.7737 21.7273 36.2775 22.0417 37.5426 22.6705C38.8153 23.2917 39.7964 24.1856 40.4858 25.3523C41.1752 26.5114 41.5199 27.8864 41.5199 29.4773C41.5199 31.0909 41.1676 32.4621 40.4631 33.5909C39.7585 34.7121 38.7585 35.5682 37.4631 36.1591C36.1676 36.7424 34.6335 37.0341 32.8608 37.0341H26.7812V32.6023H31.8153C32.6638 32.6023 33.3722 32.4924 33.9403 32.2727C34.5161 32.0455 34.9517 31.7045 35.2472 31.25C35.5426 30.7879 35.6903 30.197 35.6903 29.4773C35.6903 28.7576 35.5426 28.1629 35.2472 27.6932C34.9517 27.2159 34.5161 26.8598 33.9403 26.625C33.3646 26.3826 32.6563 26.2614 31.8153 26.2614H29.0426V45H23.4176ZM36.5199 34.3636L42.3153 45H36.179L30.4972 34.3636H36.5199ZM50.2301 21.7273V45H44.6051V21.7273H50.2301ZM53.7614 45V21.7273H63.375C65.1174 21.7273 66.6212 22.0682 67.8864 22.75C69.1591 23.4242 70.1402 24.3674 70.8295 25.5795C71.5189 26.7841 71.8636 28.1856 71.8636 29.7841C71.8636 31.3902 71.5114 32.7955 70.8068 34C70.1098 35.197 69.1136 36.125 67.8182 36.7841C66.5227 37.4432 64.9848 37.7727 63.2045 37.7727H57.2727V33.3409H62.1591C63.0076 33.3409 63.7159 33.1932 64.2841 32.8977C64.8598 32.6023 65.2955 32.1894 65.5909 31.6591C65.8864 31.1212 66.0341 30.4962 66.0341 29.7841C66.0341 29.0644 65.8864 28.4432 65.5909 27.9205C65.2955 27.3902 64.8598 26.9811 64.2841 26.6932C63.7083 26.4053 63 26.2614 62.1591 26.2614H59.3864V45H53.7614ZM74.6364 45V21.7273H84.25C85.9924 21.7273 87.4962 22.0682 88.7614 22.75C90.0341 23.4242 91.0152 24.3674 91.7045 25.5795C92.3939 26.7841 92.7386 28.1856 92.7386 29.7841C92.7386 31.3902 92.3864 32.7955 91.6818 34C90.9848 35.197 89.9886 36.125 88.6932 36.7841C87.3977 37.4432 85.8598 37.7727 84.0795 37.7727H78.1477V33.3409H83.0341C83.8826 33.3409 84.5909 33.1932 85.1591 32.8977C85.7348 32.6023 86.1705 32.1894 86.4659 31.6591C86.7614 31.1212 86.9091 30.4962 86.9091 29.7841C86.9091 29.0644 86.7614 28.4432 86.4659 27.9205C86.1705 27.3902 85.7348 26.9811 85.1591 26.6932C84.5833 26.4053 83.875 26.2614 83.0341 26.2614H80.2614V45H74.6364ZM101.136 21.7273V45H95.5114V21.7273H101.136ZM110.781 26.2955V21.7273H130.452V26.2955H123.395V45H117.849V26.2955H110.781ZM133.199 45V21.7273H142.812C144.555 21.7273 146.059 22.0417 147.324 22.6705C148.597 23.2917 149.578 24.1856 150.267 25.3523C150.956 26.5114 151.301 27.8864 151.301 29.4773C151.301 31.0909 150.949 32.4621 150.244 33.5909C149.54 34.7121 148.54 35.5682 147.244 36.1591C145.949 36.7424 144.415 37.0341 142.642 37.0341H136.562V32.6023H141.597C142.445 32.6023 143.153 32.4924 143.722 32.2727C144.297 32.0455 144.733 31.7045 145.028 31.25C145.324 30.7879 145.472 30.197 145.472 29.4773C145.472 28.7576 145.324 28.1629 145.028 27.6932C144.733 27.2159 144.297 26.8598 143.722 26.625C143.146 26.3826 142.438 26.2614 141.597 26.2614H138.824V45H133.199ZM146.301 34.3636L152.097 45H145.96L140.278 34.3636H146.301ZM176.352 33.3636C176.352 35.9242 175.86 38.0947 174.875 39.875C173.89 41.6553 172.557 43.0076 170.875 43.9318C169.201 44.8561 167.322 45.3182 165.239 45.3182C163.148 45.3182 161.265 44.8523 159.591 43.9205C157.917 42.9886 156.587 41.6364 155.602 39.8636C154.625 38.0833 154.136 35.9167 154.136 33.3636C154.136 30.803 154.625 28.6326 155.602 26.8523C156.587 25.072 157.917 23.7197 159.591 22.7955C161.265 21.8712 163.148 21.4091 165.239 21.4091C167.322 21.4091 169.201 21.8712 170.875 22.7955C172.557 23.7197 173.89 25.072 174.875 26.8523C175.86 28.6326 176.352 30.803 176.352 33.3636ZM170.602 33.3636C170.602 31.8485 170.386 30.5682 169.955 29.5227C169.53 28.4773 168.917 27.6856 168.114 27.1477C167.318 26.6098 166.36 26.3409 165.239 26.3409C164.125 26.3409 163.167 26.6098 162.364 27.1477C161.561 27.6856 160.943 28.4773 160.511 29.5227C160.087 30.5682 159.875 31.8485 159.875 33.3636C159.875 34.8788 160.087 36.1591 160.511 37.2045C160.943 38.25 161.561 39.0417 162.364 39.5795C163.167 40.1174 164.125 40.3864 165.239 40.3864C166.36 40.3864 167.318 40.1174 168.114 39.5795C168.917 39.0417 169.53 38.25 169.955 37.2045C170.386 36.1591 170.602 34.8788 170.602 33.3636ZM179.636 45V21.7273H189.25C190.992 21.7273 192.496 22.0682 193.761 22.75C195.034 23.4242 196.015 24.3674 196.705 25.5795C197.394 26.7841 197.739 28.1856 197.739 29.7841C197.739 31.3902 197.386 32.7955 196.682 34C195.985 35.197 194.989 36.125 193.693 36.7841C192.398 37.4432 190.86 37.7727 189.08 37.7727H183.148V33.3409H188.034C188.883 33.3409 189.591 33.1932 190.159 32.8977C190.735 32.6023 191.17 32.1894 191.466 31.6591C191.761 31.1212 191.909 30.4962 191.909 29.7841C191.909 29.0644 191.761 28.4432 191.466 27.9205C191.17 27.3902 190.735 26.9811 190.159 26.6932C189.583 26.4053 188.875 26.2614 188.034 26.2614H185.261V45H179.636ZM200.511 45V21.7273H210.125C211.867 21.7273 213.371 22.0682 214.636 22.75C215.909 23.4242 216.89 24.3674 217.58 25.5795C218.269 26.7841 218.614 28.1856 218.614 29.7841C218.614 31.3902 218.261 32.7955 217.557 34C216.86 35.197 215.864 36.125 214.568 36.7841C213.273 37.4432 211.735 37.7727 209.955 37.7727H204.023V33.3409H208.909C209.758 33.3409 210.466 33.1932 211.034 32.8977C211.61 32.6023 212.045 32.1894 212.341 31.6591C212.636 31.1212 212.784 30.4962 212.784 29.7841C212.784 29.0644 212.636 28.4432 212.341 27.9205C212.045 27.3902 211.61 26.9811 211.034 26.6932C210.458 26.4053 209.75 26.2614 208.909 26.2614H206.136V45H200.511ZM227.011 21.7273V45H221.386V21.7273H227.011Z" fill="black"/>
</svg>
